<?xml version="1.0" encoding="UTF-8" standalone="no"?>
<!-- Created with Inkscape (http://www.inkscape.org/) -->

<svg
   xmlns:ns1="http://www.iki.fi/pav/software/textext/"
   xmlns:dc="http://purl.org/dc/elements/1.1/"
   xmlns:cc="http://creativecommons.org/ns#"
   xmlns:rdf="http://www.w3.org/1999/02/22-rdf-syntax-ns#"
   xmlns:svg="http://www.w3.org/2000/svg"
   xmlns="http://www.w3.org/2000/svg"
   xmlns:sodipodi="http://sodipodi.sourceforge.net/DTD/sodipodi-0.dtd"
   xmlns:inkscape="http://www.inkscape.org/namespaces/inkscape"
   width="210mm"
   height="297mm"
   viewBox="0 0 210 297"
   version="1.1"
   id="svg8"
   inkscape:export-filename="/home/marco/Documenti/Innsbruck/Thesis/master_thesis/img/razorsetup.png"
   inkscape:export-xdpi="400"
   inkscape:export-ydpi="400"
   inkscape:version="0.92.4 5da689c313, 2019-01-14"
   sodipodi:docname="razorsetup.svg">
  <defs
     id="defs2">
    <inkscape:path-effect
       effect="bspline"
       id="path-effect3066"
       is_visible="true"
       weight="33.333333"
       steps="2"
       helper_size="0"
       apply_no_weight="true"
       apply_with_weight="true"
       only_selected="false" />
    <inkscape:path-effect
       effect="bspline"
       id="path-effect3062"
       is_visible="true"
       weight="33.333333"
       steps="2"
       helper_size="0"
       apply_no_weight="true"
       apply_with_weight="true"
       only_selected="false" />
    <marker
       inkscape:stockid="Arrow2Lstart"
       orient="auto"
       refY="0.0"
       refX="0.0"
       id="marker1549"
       style="overflow:visible"
       inkscape:isstock="true">
      <path
         id="path1547"
         style="fill-rule:evenodd;stroke-width:0.625;stroke-linejoin:round;stroke:#000000;stroke-opacity:1;fill:#000000;fill-opacity:1"
         d="M 8.7185878,4.0337352 L -2.2072895,0.016013256 L 8.7185884,-4.0017078 C 6.9730900,-1.6296469 6.9831476,1.6157441 8.7185878,4.0337352 z "
         transform="scale(1.1) translate(1,0)" />
    </marker>
    <marker
       inkscape:stockid="Arrow2Lend"
       orient="auto"
       refY="0.0"
       refX="0.0"
       id="marker1509"
       style="overflow:visible;"
       inkscape:isstock="true">
      <path
         id="path1507"
         style="fill-rule:evenodd;stroke-width:0.625;stroke-linejoin:round;stroke:#000000;stroke-opacity:1;fill:#000000;fill-opacity:1"
         d="M 8.7185878,4.0337352 L -2.2072895,0.016013256 L 8.7185884,-4.0017078 C 6.9730900,-1.6296469 6.9831476,1.6157441 8.7185878,4.0337352 z "
         transform="scale(1.1) rotate(180) translate(1,0)" />
    </marker>
    <inkscape:path-effect
       effect="bspline"
       id="path-effect1505"
       is_visible="true"
       weight="33.333333"
       steps="2"
       helper_size="0"
       apply_no_weight="true"
       apply_with_weight="true"
       only_selected="false" />
    <marker
       inkscape:stockid="Arrow2Lstart"
       orient="auto"
       refY="0.0"
       refX="0.0"
       id="Arrow2Lstart"
       style="overflow:visible"
       inkscape:isstock="true">
      <path
         id="path894"
         style="fill-rule:evenodd;stroke-width:0.625;stroke-linejoin:round;stroke:#000000;stroke-opacity:1;fill:#000000;fill-opacity:1"
         d="M 8.7185878,4.0337352 L -2.2072895,0.016013256 L 8.7185884,-4.0017078 C 6.9730900,-1.6296469 6.9831476,1.6157441 8.7185878,4.0337352 z "
         transform="scale(1.1) translate(1,0)" />
    </marker>
    <marker
       inkscape:stockid="Arrow2Lend"
       orient="auto"
       refY="0.0"
       refX="0.0"
       id="marker1139"
       style="overflow:visible;"
       inkscape:isstock="true">
      <path
         id="path897"
         style="fill-rule:evenodd;stroke-width:0.625;stroke-linejoin:round;stroke:#000000;stroke-opacity:1;fill:#000000;fill-opacity:1"
         d="M 8.7185878,4.0337352 L -2.2072895,0.016013256 L 8.7185884,-4.0017078 C 6.9730900,-1.6296469 6.9831476,1.6157441 8.7185878,4.0337352 z "
         transform="scale(1.1) rotate(180) translate(1,0)" />
    </marker>
    <inkscape:path-effect
       effect="bspline"
       id="path-effect874"
       is_visible="true"
       weight="33.333333"
       steps="2"
       helper_size="0"
       apply_no_weight="true"
       apply_with_weight="true"
       only_selected="false" />
    <inkscape:path-effect
       effect="bspline"
       id="path-effect870"
       is_visible="true"
       weight="33.333333"
       steps="2"
       helper_size="0"
       apply_no_weight="true"
       apply_with_weight="true"
       only_selected="false" />
    <marker
       inkscape:stockid="Arrow2Lend"
       orient="auto"
       refY="0.0"
       refX="0.0"
       id="Arrow2Lend"
       style="overflow:visible;"
       inkscape:isstock="true">
      <path
         id="path1015"
         style="fill-rule:evenodd;stroke-width:0.625;stroke-linejoin:round;stroke:#ff0000;stroke-opacity:1;fill:#ff0000;fill-opacity:1"
         d="M 8.7185878,4.0337352 L -2.2072895,0.016013256 L 8.7185884,-4.0017078 C 6.9730900,-1.6296469 6.9831476,1.6157441 8.7185878,4.0337352 z "
         transform="scale(1.1) rotate(180) translate(1,0)" />
    </marker>
    <inkscape:path-effect
       effect="bspline"
       id="path-effect992"
       is_visible="true"
       weight="33.333333"
       steps="2"
       helper_size="0"
       apply_no_weight="true"
       apply_with_weight="true"
       only_selected="false" />
    <inkscape:path-effect
       effect="bspline"
       id="path-effect988"
       is_visible="true"
       weight="33.333333"
       steps="2"
       helper_size="0"
       apply_no_weight="true"
       apply_with_weight="true"
       only_selected="false" />
    <inkscape:path-effect
       effect="bspline"
       id="path-effect984"
       is_visible="true"
       weight="33.333333"
       steps="2"
       helper_size="0"
       apply_no_weight="true"
       apply_with_weight="true"
       only_selected="false" />
    <inkscape:path-effect
       effect="bspline"
       id="path-effect892"
       is_visible="true"
       weight="33.333333"
       steps="2"
       helper_size="0"
       apply_no_weight="true"
       apply_with_weight="true"
       only_selected="false" />
    <inkscape:path-effect
       effect="bspline"
       id="path-effect888"
       is_visible="true"
       weight="33.333333"
       steps="2"
       helper_size="0"
       apply_no_weight="true"
       apply_with_weight="true"
       only_selected="false" />
    <inkscape:path-effect
       effect="bspline"
       id="path-effect866"
       is_visible="true"
       weight="33.333333"
       steps="2"
       helper_size="0"
       apply_no_weight="true"
       apply_with_weight="true"
       only_selected="false" />
    <inkscape:path-effect
       effect="bspline"
       id="path-effect844"
       is_visible="true"
       weight="33.333333"
       steps="2"
       helper_size="0"
       apply_no_weight="true"
       apply_with_weight="true"
       only_selected="false" />
    <inkscape:path-effect
       effect="bspline"
       id="path-effect840"
       is_visible="true"
       weight="33.333333"
       steps="2"
       helper_size="0"
       apply_no_weight="true"
       apply_with_weight="true"
       only_selected="false" />
    <inkscape:path-effect
       effect="bspline"
       id="path-effect840-7"
       is_visible="true"
       weight="33.333333"
       steps="2"
       helper_size="0"
       apply_no_weight="true"
       apply_with_weight="true"
       only_selected="false" />
    <inkscape:path-effect
       effect="bspline"
       id="path-effect866-3"
       is_visible="true"
       weight="33.333333"
       steps="2"
       helper_size="0"
       apply_no_weight="true"
       apply_with_weight="true"
       only_selected="false" />
    <inkscape:path-effect
       effect="bspline"
       id="path-effect892-6"
       is_visible="true"
       weight="33.333333"
       steps="2"
       helper_size="0"
       apply_no_weight="true"
       apply_with_weight="true"
       only_selected="false" />
    <inkscape:path-effect
       effect="bspline"
       id="path-effect866-9"
       is_visible="true"
       weight="33.333333"
       steps="2"
       helper_size="0"
       apply_no_weight="true"
       apply_with_weight="true"
       only_selected="false" />
    <inkscape:path-effect
       effect="bspline"
       id="path-effect892-6-3"
       is_visible="true"
       weight="33.333333"
       steps="2"
       helper_size="0"
       apply_no_weight="true"
       apply_with_weight="true"
       only_selected="false" />
  </defs>
  <sodipodi:namedview
     id="base"
     pagecolor="#ffffff"
     bordercolor="#666666"
     borderopacity="1.0"
     inkscape:pageopacity="0.0"
     inkscape:pageshadow="2"
     inkscape:zoom="5.6"
     inkscape:cx="298.34637"
     inkscape:cy="597.96016"
     inkscape:document-units="mm"
     inkscape:current-layer="layer1"
     showgrid="false"
     inkscape:window-width="1366"
     inkscape:window-height="697"
     inkscape:window-x="0"
     inkscape:window-y="0"
     inkscape:window-maximized="1" />
  <metadata
     id="metadata5">
    <rdf:RDF>
      <cc:Work
         rdf:about="">
        <dc:format>image/svg+xml</dc:format>
        <dc:type
           rdf:resource="http://purl.org/dc/dcmitype/StillImage" />
        <dc:title />
      </cc:Work>
    </rdf:RDF>
  </metadata>
  <g
     inkscape:label="Livello 1"
     inkscape:groupmode="layer"
     id="layer1">
    <path
       style="fill:none;stroke:#000000;stroke-width:0.26458332px;stroke-linecap:butt;stroke-linejoin:miter;stroke-opacity:1"
       d="m 80.886905,114.53199 c -0.0315,-4.81946 -0.063,-9.63865 -0.0945,-14.45759"
       id="path838"
       inkscape:connector-curvature="0"
       inkscape:path-effect="#path-effect840"
       inkscape:original-d="m 80.886905,114.53199 c -0.03123,-4.81946 -0.06273,-9.63865 -0.0945,-14.45759"
       transform="translate(0.03005095,-0.05130018)" />
    <path
       transform="translate(13.843381,0.04725117)"
       style="fill:none;stroke:#000000;stroke-width:0.26458332px;stroke-linecap:butt;stroke-linejoin:miter;stroke-opacity:1"
       d="m 80.886905,114.53199 c -0.0315,-4.81946 -0.063,-9.63865 -0.0945,-14.45759"
       id="path838-5"
       inkscape:connector-curvature="0"
       inkscape:path-effect="#path-effect840-7"
       inkscape:original-d="m 80.886905,114.53199 c -0.03123,-4.81946 -0.06273,-9.63865 -0.0945,-14.45759" />
    <path
       style="fill:#00ecf1;fill-opacity:1;stroke:#00ecf1;stroke-width:0.26458332px;stroke-linecap:butt;stroke-linejoin:miter;stroke-opacity:1"
       d="m 81.264881,114.42573 c 0,0 13.252793,0.0118 13.252793,0.0118 -2.150788,-0.79599 -4.301357,-1.5919 -6.510145,-1.59395 -2.208789,-0.002 -4.475839,0.79009 -6.742648,1.58215 z"
       id="path864"
       inkscape:connector-curvature="0"
       inkscape:path-effect="#path-effect866"
       inkscape:original-d="m 81.264881,114.42573 13.252793,0.0118 c 0,0 -4.301238,-1.59222 -6.452365,-2.38797 -2.266622,0.79182 -6.800428,2.37617 -6.800428,2.37617 z"
       sodipodi:nodetypes="ccccc" />
    <path
       transform="translate(-0.13107002,-2.2977345)"
       style="fill:#00ecf1;fill-opacity:1;stroke:#00ecf1;stroke-width:0.26458332px;stroke-linecap:butt;stroke-linejoin:miter;stroke-opacity:1"
       d="m 81.690104,114.44935 c 0,0 12.591335,-0.0591 12.591335,-0.0591 -1.977549,-1.40233 -3.95498,-2.80457 -6.053479,-2.79484 -2.098499,0.01 -4.318294,1.43191 -6.537856,2.85394 z"
       id="path864-5"
       inkscape:connector-curvature="0"
       inkscape:path-effect="#path-effect866-3"
       inkscape:original-d="m 81.690104,114.44935 12.591335,-0.0591 c 0,0 -3.954766,-2.80487 -5.932648,-4.20698 -2.219374,1.42181 -6.658687,4.26608 -6.658687,4.26608 z"
       sodipodi:nodetypes="ccccc" />
    <path
       style="fill:#00ecf1;fill-opacity:1;stroke:#00ecf1;stroke-width:0.26458332px;stroke-linecap:butt;stroke-linejoin:miter;stroke-opacity:1"
       d="m 81.61088,105.67654 c 1.97141,0.29755 3.94304,0.59513 6.0266,0.59402 2.08356,-0.001 4.278901,-0.30076 6.474537,-0.60045 0,0 -0.0098,2.03243 -0.0098,2.03243 -2.192374,-0.3221 -4.384295,-0.64414 -6.468238,-0.66251 -2.083944,-0.0184 -4.059181,0.26707 -6.03433,0.5525 0,0 0.01122,-1.51509 0.01122,-1.51509 0,0 1.1e-5,-0.4009 1.1e-5,-0.4009 z"
       id="path890"
       inkscape:connector-curvature="0"
       inkscape:path-effect="#path-effect892"
       inkscape:original-d="m 81.61088,105.67654 c 0,0 3.943086,0.59483 5.91423,0.89265 2.195899,-0.29996 6.586907,-0.89908 6.586907,-0.89908 l -0.0098,2.03243 c 0,0 -4.384252,-0.64443 -6.577122,-0.96631 -1.975092,0.2852 -5.925446,0.8563 -5.925446,0.8563 l 0.01122,-1.51509 z"
       sodipodi:nodetypes="cccccccc"
       transform="translate(-0.06681739,1.2695303)" />
    <path
       style="fill:#00ecf1;fill-opacity:1;stroke:#00ecf1;stroke-width:0.26458332px;stroke-linecap:butt;stroke-linejoin:miter;stroke-opacity:1"
       d="m 81.61088,105.67654 c 2.015955,-0.29267 4.032208,-0.58538 6.115693,-0.58642 2.083486,-0.001 4.234353,0.28946 6.385444,0.57999 0,0 -0.0098,2.03243 -0.0098,2.03243 -2.170102,0.36834 -4.339671,0.7366 -6.423703,0.71831 -2.084032,-0.0183 -4.081444,-0.42331 -6.078865,-0.82832 0,0 0.01122,-1.51509 0.01122,-1.51509 0,0 1.1e-5,-0.4009 1.1e-5,-0.4009 z"
       id="path890-2"
       inkscape:connector-curvature="0"
       inkscape:path-effect="#path-effect892-6"
       inkscape:original-d="m 81.61088,105.67654 c 0,0 4.032175,-0.58561 6.047865,-0.87801 2.151354,0.29026 6.453272,0.87158 6.453272,0.87158 l -0.0098,2.03243 c 0,0 -4.339708,0.73638 -6.510305,1.10503 -1.997368,-0.40532 -5.992263,-1.21504 -5.992263,-1.21504 l 0.01122,-1.51509 z"
       sodipodi:nodetypes="cccccccc"
       transform="translate(-0.12440873,-1.7201631)" />
    <path
       transform="matrix(1,0,0,-1,-0.1277857,215.36676)"
       style="fill:#00ecf1;fill-opacity:1;stroke:#00ecf1;stroke-width:0.26458332px;stroke-linecap:butt;stroke-linejoin:miter;stroke-opacity:1"
       d="m 81.264881,114.42573 c 0,0 13.252793,0.0118 13.252793,0.0118 -2.150788,-0.79599 -4.301357,-1.5919 -6.510145,-1.59395 -2.208789,-0.002 -4.475839,0.79009 -6.742648,1.58215 z"
       id="path864-1"
       inkscape:connector-curvature="0"
       inkscape:path-effect="#path-effect866-9"
       inkscape:original-d="m 81.264881,114.42573 13.252793,0.0118 c 0,0 -4.301238,-1.59222 -6.452365,-2.38797 -2.266622,0.79182 -6.800428,2.37617 -6.800428,2.37617 z"
       sodipodi:nodetypes="ccccc" />
    <text
       xml:space="preserve"
       style="font-style:normal;font-weight:normal;font-size:3.2455554px;line-height:1.25;font-family:sans-serif;letter-spacing:0px;word-spacing:0px;fill:#000000;fill-opacity:1;stroke:none;stroke-width:0.26458332"
       x="63.8106"
       y="107.97363"
       id="text932"><tspan
         sodipodi:role="line"
         id="tspan930"
         x="63.8106"
         y="107.97363"
         style="stroke-width:0.26458332">Objective</tspan></text>
    <g
       id="g953"
       transform="matrix(0.67754323,-0.63312703,0.55918916,0.77338854,-6.6697265,87.57422)">
      <rect
         ry="0"
         y="62.512772"
         x="77.909622"
         height="1.3229189"
         width="17.457317"
         id="rect934"
         style="opacity:1;fill:#00ecf1;fill-opacity:1;fill-rule:nonzero;stroke:none;stroke-width:0.23750265;stroke-linecap:square;stroke-linejoin:round;stroke-miterlimit:4;stroke-dasharray:none;stroke-dashoffset:0;stroke-opacity:1;paint-order:fill markers stroke" />
      <rect
         y="62.008366"
         x="77.909622"
         height="0.50440598"
         width="17.457317"
         id="rect934-2"
         style="opacity:1;fill:#000000;fill-opacity:1;fill-rule:nonzero;stroke:none;stroke-width:0.14665335;stroke-linecap:square;stroke-linejoin:round;stroke-miterlimit:4;stroke-dasharray:none;stroke-dashoffset:0;stroke-opacity:1;paint-order:fill markers stroke" />
    </g>
    <rect
       style="opacity:1;fill:none;fill-opacity:1;fill-rule:nonzero;stroke:#000000;stroke-width:0.359;stroke-linecap:square;stroke-linejoin:miter;stroke-miterlimit:4;stroke-dasharray:none;stroke-dashoffset:0;stroke-opacity:1;paint-order:fill markers stroke"
       id="rect866"
       width="9.260417"
       height="9.8273811"
       x="85.551147"
       y="122.04752" />
    <path
       style="fill:none;stroke:#000000;stroke-width:0.26458332px;stroke-linecap:butt;stroke-linejoin:miter;stroke-opacity:1"
       d="m 84.855655,126.53274 c 2.140278,-0.007 4.283994,-0.0147 6.425594,-0.022"
       id="path868"
       inkscape:connector-curvature="0"
       inkscape:path-effect="#path-effect870"
       inkscape:original-d="m 84.855655,126.53274 c 2.140276,-0.008 4.283993,-0.0149 6.425594,-0.022"
       sodipodi:nodetypes="cc"
       transform="translate(2.207394,0.61746382)" />
    <path
       style="fill:none;stroke:#000000;stroke-width:0.165;stroke-linecap:butt;stroke-linejoin:miter;stroke-opacity:1;marker-start:url(#Arrow2Lstart);marker-end:url(#marker1139);stroke-miterlimit:4;stroke-dasharray:none"
       d="m 104.10148,115.39035 c 0,12.51686 0,25.03398 0,37.55137"
       id="path872"
       inkscape:connector-curvature="0"
       inkscape:path-effect="#path-effect874"
       inkscape:original-d="m 104.10148,115.39035 c 2.7e-4,12.51686 2.7e-4,25.03398 0,37.55137"
       transform="translate(-0.93544336,-0.13363476)" />
    <path
       style="fill:none;stroke:#000000;stroke-width:0.165;stroke-linecap:butt;stroke-linejoin:miter;stroke-opacity:1;marker-start:url(#marker1549);marker-end:url(#marker1509);stroke-miterlimit:4;stroke-dasharray:none"
       d="m 96.083394,126.48204 c 4.766576,-0.0446 9.532876,-0.0891 14.298916,-0.13363"
       id="path1503"
       inkscape:connector-curvature="0"
       inkscape:path-effect="#path-effect1505"
       inkscape:original-d="m 96.083394,126.48204 c 4.766576,-0.0448 9.532876,-0.0894 14.298916,-0.13363"
       transform="translate(-15.32156,8.0832185)" />
    <g
       id="g1891"
       ns1:jacobian_sqrt="0.551109"
       inkscapeversion="0.92.4"
       ns1:alignment="middle center"
       ns1:scale="1.56219872035"
       ns1:preamble="/home/marco/.config/inkscape/extensions/textext/default_packages.tex"
       ns1:text="$z$"
       ns1:pdfconverter="pdf2svg"
       ns1:texconverter="pdflatex"
       ns1:version="0.11.0"
       transform="matrix(0.551109,0,0,0.551109,23.028912,40.970428)">
      <g
         id="surface1">
        <g
           id="g1888"
           style="fill:#000000;fill-opacity:1">
          <path
             id="path1886"
             transform="translate(148.712,134.765)"
             d="m 1.328125,-0.828125 c 0.53125,-0.578125 0.828125,-0.828125 1.1875,-1.140625 0,0 0.609375,-0.53125 0.96875,-0.890625 C 4.4375,-3.78125 4.65625,-4.265625 4.65625,-4.3125 c 0,-0.09375 -0.09375,-0.09375 -0.109375,-0.09375 -0.078125,0 -0.09375,0.015625 -0.15625,0.109375 -0.296875,0.484375 -0.5,0.640625 -0.734375,0.640625 -0.25,0 -0.359375,-0.15625 -0.515625,-0.328125 -0.1875,-0.21875 -0.359375,-0.421875 -0.6875,-0.421875 -0.75,0 -1.203125,0.921875 -1.203125,1.140625 0,0.046875 0.03125,0.109375 0.109375,0.109375 0.09375,0 0.109375,-0.046875 0.140625,-0.109375 0.1875,-0.46875 0.765625,-0.46875 0.84375,-0.46875 0.203125,0 0.390625,0.0625 0.625,0.140625 0.40625,0.15625 0.515625,0.15625 0.765625,0.15625 -0.359375,0.421875 -1.1875,1.140625 -1.375,1.296875 l -0.90625,0.84375 C 0.78125,-0.625 0.421875,-0.0625 0.421875,0.015625 c 0,0.09375 0.109375,0.09375 0.125,0.09375 0.078125,0 0.09375,-0.015625 0.15625,-0.125 0.234375,-0.359375 0.53125,-0.625 0.859375,-0.625 0.21875,0 0.328125,0.09375 0.578125,0.375 0.15625,0.21875 0.34375,0.375 0.625,0.375 1,0 1.578125,-1.265625 1.578125,-1.53125 0,-0.046875 -0.046875,-0.109375 -0.125,-0.109375 -0.09375,0 -0.109375,0.0625 -0.140625,0.140625 C 3.84375,-0.75 3.203125,-0.5625 2.875,-0.5625 c -0.1875,0 -0.375,-0.0625 -0.578125,-0.125 -0.34375,-0.125 -0.5,-0.171875 -0.703125,-0.171875 -0.015625,0 -0.171875,0 -0.265625,0.03125 z m 0,0"
             style="stroke:none;stroke-width:0"
             inkscape:connector-curvature="0" />
        </g>
      </g>
    </g>
    <g
       id="g1956"
       ns1:jacobian_sqrt="0.551109"
       inkscapeversion="0.92.4"
       ns1:alignment="middle center"
       ns1:scale="1.56219872035"
       ns1:preamble="/home/marco/.config/inkscape/extensions/textext/default_packages.tex"
       ns1:text="$x$"
       ns1:pdfconverter="pdf2svg"
       ns1:texconverter="pdflatex"
       ns1:version="0.11.0"
       transform="matrix(0.551109,0,0,0.551109,14.525079,61.435795)">
      <g
         id="g1954">
        <g
           id="g1952"
           style="fill:#000000;fill-opacity:1">
          <path
             id="path1950"
             transform="translate(148.712,134.765)"
             d="M 3.328125,-3.015625 C 3.390625,-3.265625 3.625,-4.1875 4.3125,-4.1875 c 0.046875,0 0.296875,0 0.5,0.125 C 4.53125,-4 4.34375,-3.765625 4.34375,-3.515625 c 0,0.15625 0.109375,0.34375 0.375,0.34375 0.21875,0 0.53125,-0.171875 0.53125,-0.578125 0,-0.515625 -0.578125,-0.65625 -0.921875,-0.65625 -0.578125,0 -0.921875,0.53125 -1.046875,0.75 -0.25,-0.65625 -0.78125,-0.75 -1.078125,-0.75 -1.03125,0 -1.609375,1.28125 -1.609375,1.53125 0,0.109375 0.109375,0.109375 0.125,0.109375 0.078125,0 0.109375,-0.03125 0.125,-0.109375 0.34375,-1.0625 1,-1.3125 1.34375,-1.3125 0.1875,0 0.53125,0.09375 0.53125,0.671875 0,0.3125 -0.171875,0.96875 -0.53125,2.375 -0.15625,0.609375 -0.515625,1.03125 -0.953125,1.03125 -0.0625,0 -0.28125,0 -0.5,-0.125 0.25,-0.0625 0.46875,-0.265625 0.46875,-0.546875 0,-0.265625 -0.21875,-0.34375 -0.359375,-0.34375 -0.3125,0 -0.546875,0.25 -0.546875,0.578125 0,0.453125 0.484375,0.65625 0.921875,0.65625 0.671875,0 1.03125,-0.703125 1.046875,-0.75 0.125,0.359375 0.484375,0.75 1.078125,0.75 1.03125,0 1.59375,-1.28125 1.59375,-1.53125 0,-0.109375 -0.078125,-0.109375 -0.109375,-0.109375 -0.09375,0 -0.109375,0.046875 -0.140625,0.109375 -0.328125,1.078125 -1,1.3125 -1.3125,1.3125 -0.390625,0 -0.546875,-0.3125 -0.546875,-0.65625 0,-0.21875 0.046875,-0.4375 0.15625,-0.875 z m 0,0"
             style="stroke:none;stroke-width:0"
             inkscape:connector-curvature="0" />
        </g>
      </g>
    </g>
    <text
       xml:space="preserve"
       style="font-style:normal;font-weight:normal;font-size:3.2455554px;line-height:1.25;font-family:sans-serif;letter-spacing:0px;word-spacing:0px;fill:#000000;fill-opacity:1;stroke:none;stroke-width:0.26458332"
       x="72.677025"
       y="125.66679"
       id="text2548"><tspan
         sodipodi:role="line"
         id="tspan2546"
         x="72.677025"
         y="125.66679"
         style="stroke-width:0.26458332">Razor</tspan><tspan
         sodipodi:role="line"
         x="72.677025"
         y="129.72372"
         style="stroke-width:0.26458332"
         id="tspan3068">Blade</tspan></text>
    <path
       style="fill:#00ecf1;fill-opacity:1;stroke:#00ecf1;stroke-width:0.26458332px;stroke-linecap:butt;stroke-linejoin:miter;stroke-opacity:1"
       d="m 81.610869,106.07744 c 2.004822,-0.23699 4.009938,-0.47401 6.082295,-0.46948 2.072356,0.005 4.212081,0.25048 6.352036,0.49646 0,0 -0.04321,0.99676 -0.04321,0.99676 -2.125557,0.29039 -4.250592,0.58071 -6.317907,0.57355 -2.067315,-0.007 -4.075878,-0.31195 -6.084435,-0.61674 0,0 0.01122,-0.98055 0.01122,-0.98055 z"
       id="path890-2-6"
       inkscape:connector-curvature="0"
       inkscape:path-effect="#path-effect892-6-3"
       inkscape:original-d="m 81.610869,106.07744 c 0,0 4.009911,-0.47424 6.014467,-0.71096 2.140218,0.24571 6.419864,0.73794 6.419864,0.73794 l -0.04321,0.99676 c 0,0 -4.250622,0.58049 -6.37667,0.87117 -2.008507,-0.30508 -6.025672,-0.91436 -6.025672,-0.91436 z"
       sodipodi:nodetypes="cccccccc"
       transform="translate(-1.1434592,35.261271)" />
    <path
       style="opacity:1;fill:none;fill-opacity:1;fill-rule:nonzero;stroke:#000000;stroke-width:0.15899999;stroke-linecap:square;stroke-linejoin:miter;stroke-miterlimit:4;stroke-dasharray:none;stroke-dashoffset:0;stroke-opacity:1;paint-order:fill markers stroke"
       id="path2940"
       sodipodi:type="arc"
       sodipodi:cx="86.66214"
       sodipodi:cy="149.0329"
       sodipodi:rx="3.1905298"
       sodipodi:ry="2.9399648"
       sodipodi:start="0"
       sodipodi:end="3.1423027"
       d="m 89.85267,149.0329 a 3.1905298,2.9399648 0 0 1 -1.595919,2.54643 3.1905298,2.9399648 0 0 1 -3.191184,-0.001 3.1905298,2.9399648 0 0 1 -1.593956,-2.54748 l 3.190529,0.002 z" />
    <text
       xml:space="preserve"
       style="font-style:normal;font-weight:normal;font-size:2.82222223px;line-height:1.25;font-family:sans-serif;letter-spacing:0px;word-spacing:0px;fill:#000000;fill-opacity:1;stroke:none;stroke-width:0.26458332"
       x="78.644043"
       y="154.81259"
       id="text2944"><tspan
         sodipodi:role="line"
         id="tspan2942"
         x="78.644043"
         y="154.81259"
         style="font-size:2.82222223px;stroke-width:0.26458332">Photodiode</tspan></text>
    <path
       style="fill:none;stroke:#ff0000;stroke-width:0.26458332px;stroke-linecap:butt;stroke-linejoin:miter;stroke-opacity:1"
       d="m 117.49523,78.519103 c 0,0 -25.764438,0.09449 -25.764438,0.09449 0,0 0.02293,31.288187 0.02293,31.288187 -1.102431,5.70114 -2.204801,11.40197 -3.307292,17.10342"
       id="path3060"
       inkscape:connector-curvature="0"
       inkscape:path-effect="#path-effect3062"
       inkscape:original-d="m 117.49523,78.519103 -25.764438,0.09449 0.02293,31.288187 c 0,0 -2.204596,11.40201 -3.307292,17.10342"
       sodipodi:nodetypes="cccc" />
    <path
       style="fill:none;stroke:#ff0000;stroke-width:0.26458332px;stroke-linecap:butt;stroke-linejoin:miter;stroke-opacity:1"
       d="m 117.36161,86.089277 c 0,0 -33.734379,0.09449 -33.734379,0.09449 0,0 0.566966,23.245543 0.566966,23.245543 0,0 2.000226,17.05272 2.000226,17.05272 0,0 0.467719,22.55087 0.467719,22.55087"
       id="path3064"
       inkscape:connector-curvature="0"
       inkscape:path-effect="#path-effect3066"
       inkscape:original-d="m 117.36161,86.089277 -33.734379,0.09449 0.566966,23.245543 2.000226,17.05272 0.467719,22.55087"
       sodipodi:nodetypes="ccccc" />
  </g>
</svg>
